<?xml version="1.0" encoding="UTF-8" standalone="no"?>
<!DOCTYPE svg PUBLIC "-//W3C//DTD SVG 1.1//EN" "http://www.w3.org/Graphics/SVG/1.1/DTD/svg11.dtd">
<svg version="1.1" xmlns="http://www.w3.org/2000/svg" xmlns:xlink="http://www.w3.org/1999/xlink" preserveAspectRatio="xMidYMid meet" viewBox="-1 -1 1304 1304" width="1300" height="1300"><defs><path d="M1300 0C1300 0 1300 0 1300 0C1300 780 1300 1213.33 1300 1300C1300 1300 1300 1300 1300 1300C520 1300 86.67 1300 0 1300C0 1300 0 1300 0 1300C0 520 0 86.67 0 0C0 0 0 0 0 0C780 0 1213.33 0 1300 0Z" id="hJivehHhk"></path><path d="M685.46 975.86C896.84 763.75 1014.28 645.92 1037.77 622.35C1037.77 622.35 1070.22 579.18 1037.77 540.68C1005.32 502.18 880.16 383.17 880.16 383.17C862.93 400.6 776.78 487.71 621.71 644.52L556.81 579.18L880.16 260.67C1017.84 399.27 1094.32 476.27 1109.62 491.67C1109.62 491.67 1176.84 582.67 1109.62 676.02C1087.91 706.16 1041.14 751.95 987.93 805.52C881.08 913.11 746.88 1040.03 746.88 1040.03C738.69 1031.47 718.22 1010.08 685.46 975.86ZM383.88 678.35C383.88 678.35 316.65 587.35 383.88 494.01C405.58 463.86 452.36 418.07 505.56 364.51C612.42 256.92 746.62 130 746.62 130C750.71 134.28 771.19 155.67 808.04 194.17C596.65 406.27 479.22 524.11 455.73 547.68C455.73 547.68 423.28 590.85 455.73 629.35C455.73 629.35 613.34 786.85 613.34 786.85C630.57 769.43 716.72 682.32 871.78 525.52L936.68 590.85L613.34 909.36C490.96 786.16 414.47 709.15 383.88 678.35Z" id="a1h10jm8CQ"></path><path d="M324.66 812.39L286.59 827.36C290.67 847.12 292.93 858.09 293.39 860.29C290.74 862.94 287.92 866 284.96 869.27C282.78 868.78 271.91 866.33 252.33 861.92L236.28 899.47C252.93 910.57 262.17 916.74 264.02 917.97C263.71 922.57 263.71 927.26 264.02 931.85C262.12 933.01 252.6 938.82 235.47 949.27L250.42 987.36C269.68 983.44 280.37 981.27 282.51 980.83C285.4 984.3 288.56 987.46 292.03 990.35C291.54 992.49 289.09 1003.2 284.69 1022.46L322.48 1038.52C333.58 1021.86 339.74 1012.61 340.97 1010.76C345.6 1011.07 349.95 1011.07 354.57 1010.76C355.75 1012.67 361.64 1022.19 372.25 1039.33L410.31 1024.37C405.91 1003.47 403.46 991.86 402.97 989.54C406.41 986.68 409.36 983.42 412.22 980.01C414.43 980.58 425.49 983.39 445.39 988.45L461.71 950.35C444.41 939.74 434.81 933.85 432.88 932.67C433.16 928.14 433.16 923.86 432.88 919.33C434.79 918.15 444.31 912.26 461.44 901.65L446.48 863.55C426.58 867.96 415.52 870.41 413.31 870.9C410.45 867.46 407.22 864.23 403.79 861.37C404.28 859.23 406.73 848.53 411.13 829.27L373.33 813.21C362.73 829.86 356.84 839.12 355.66 840.97C351.1 840.52 346.51 840.29 342.06 840.69C339.74 836.92 333.94 827.49 324.66 812.39ZM383.67 925.05C383.67 944.3 368.1 959.88 348.86 959.88C329.62 959.88 314.05 944.3 314.05 925.05C314.05 905.8 329.62 890.22 348.86 890.22C368.1 890.22 383.67 905.8 383.67 925.05ZM162.05 968.59C158.79 989.48 156.97 1001.09 156.61 1003.42C151.82 1004.95 146.96 1007.12 142.2 1009.67C140.26 1008.26 130.56 1001.18 113.1 988.45L82.65 1018.93C94.72 1036.56 101.43 1046.35 102.77 1048.31C100.36 1053.08 98.45 1057.87 96.79 1062.74C94.45 1063.17 82.76 1065.35 61.71 1069.27L61.71 1111.71C82.59 1115.47 94.19 1117.56 96.51 1117.97C98.04 1122.8 100.19 1127.87 102.77 1132.67C101.36 1134.55 94.29 1143.99 81.56 1160.97L112.01 1191.44C129.64 1179.36 139.42 1172.65 141.38 1171.31C146.11 1173.72 150.97 1175.63 155.79 1177.29C156.16 1179.63 157.97 1191.33 161.23 1212.39L203.92 1212.39C207.68 1191.5 209.76 1179.89 210.18 1177.57C215.04 1176.03 220.07 1173.89 224.86 1171.31C226.8 1172.72 236.5 1179.8 253.96 1192.53L284.41 1162.05C271.85 1144.42 264.87 1134.63 263.48 1132.67C265.86 1127.94 267.52 1123.08 269.19 1118.25C271.6 1117.81 283.65 1115.63 305.35 1111.71L305.35 1068.99C283.98 1065.73 272.11 1063.91 269.73 1063.55C268.2 1058.76 266.03 1053.86 263.48 1049.13C264.87 1047.19 271.85 1037.48 284.41 1020.01L254.23 988.45C236.45 1001.18 226.57 1008.26 224.59 1009.67C219.93 1007.29 215.24 1005.35 210.45 1003.69C210.09 1001.35 208.28 989.65 205.01 968.59L162.05 968.59ZM218.34 1090.49C218.34 1109.64 202.67 1125.32 183.53 1125.32C164.39 1125.32 148.72 1109.64 148.72 1090.49C148.72 1071.34 164.39 1055.66 183.53 1055.66C202.67 1055.66 218.34 1071.34 218.34 1090.49Z" id="jyJuH3dDg"></path></defs><g><g><use xlink:href="#hJivehHhk" opacity="1" fill="#6947fd" fill-opacity="1"></use><g><use xlink:href="#hJivehHhk" opacity="1" fill-opacity="0" stroke="#000000" stroke-width="1" stroke-opacity="0"></use></g></g><g><use xlink:href="#a1h10jm8CQ" opacity="1" fill="#ffffff" fill-opacity="1"></use><g><use xlink:href="#a1h10jm8CQ" opacity="1" fill-opacity="0" stroke="#000000" stroke-width="1" stroke-opacity="0"></use></g></g><g><use xlink:href="#jyJuH3dDg" opacity="1" fill="#ffffff" fill-opacity="1"></use><g><use xlink:href="#jyJuH3dDg" opacity="1" fill-opacity="0" stroke="#000000" stroke-width="1" stroke-opacity="0"></use></g></g></g></svg>